<?xml version="1.0" encoding="UTF-8"?>
<svg width="40px" height="40px" viewBox="0 0 40 40" version="1.1" xmlns="http://www.w3.org/2000/svg" xmlns:xlink="http://www.w3.org/1999/xlink">
    <title>Icon_Football_40</title>
    <g id="控件" stroke="none" stroke-width="1" fill="none" fill-rule="evenodd">
        <g id="Icon_Football_40" fill="#292A33">
            <g id="合并形状">
                <path d="M20,2 C29.9411255,2 38,10.0588745 38,20 C38,29.9411255 29.9411255,38 20,38 C10.0588745,38 2,29.9411255 2,20 C2,10.0588745 10.0588745,2 20,2 Z M15.2508655,6.82616367 L15.2385364,6.8305194 C12.5983032,7.78528459 10.3272429,9.51142813 8.69752672,11.7367788 C8.89372606,12.0085074 9.05537713,12.3073034 9.17827109,12.6283399 L9.24728091,12.8235186 L9.99406785,15.1218925 C10.5072526,16.7013127 9.98987033,18.4252699 8.71195786,19.4626764 L8.54098279,19.5940285 L6.5858692,21.0145016 C6.41846309,21.1361293 6.24397854,21.2432334 6.06410599,21.3358141 C6.30830648,23.9307851 7.26279556,26.3205266 8.73055479,28.3081333 C9.04529042,28.2078965 9.37585617,28.1476362 9.71539746,28.1301563 L9.92234866,28.1248376 L12.339002,28.1248376 C14.0025908,28.1248376 15.4845497,29.153197 16.0742182,30.6935909 L16.143228,30.8887697 L16.890015,33.1871435 C16.9430807,33.3504631 16.9851271,33.5153282 17.0164526,33.6808198 C17.9770535,33.8899933 18.97568,34 20,34 C21.2498724,34 22.4614903,33.8362131 23.6145614,33.5289316 C23.6365266,33.3503037 23.671169,33.1714296 23.7185052,32.9939062 L23.7796201,32.7871435 L24.526407,30.4887697 C25.0404842,28.9066026 26.4764626,27.8149565 28.1236819,27.7301563 L28.3306331,27.7248376 L30.7472864,27.7248376 C31.0431115,27.7248376 31.3331933,27.7573556 31.6135357,27.8194882 C32.8686336,25.9608178 33.688697,23.7827309 33.9275797,21.4327949 C33.82953,21.382263 33.7346262,21.326553 33.6416053,21.2666117 L33.4560086,21.1395303 L31.500895,19.7190572 C30.15736,18.7429218 29.5626144,17.0441015 29.9866951,15.4536839 L30.04781,15.2469212 L30.7945969,12.9485473 C30.9277727,12.5386744 31.1228183,12.1617208 31.3673783,11.8266632 C29.8254911,9.68526638 27.6926545,7.99704649 25.2077958,7.00065132 C25.0784201,7.14512017 24.9364598,7.27901528 24.7836207,7.40308975 L24.6126456,7.53444185 L22.657532,8.95491503 C21.3165367,9.92920514 19.521338,9.97156558 18.1408467,9.08199635 L17.95525,8.95491503 L16.0001364,7.53444185 C15.7160503,7.32804121 15.4654424,7.08932953 15.2508655,6.82616367 Z M22.6085885,14.236068 L25.5147587,16.3475242 C26.9167083,17.3661002 27.5033408,19.1715695 26.9678437,20.8196601 L25.8577855,24.236068 C25.3222884,25.8841586 23.7864645,27 22.0535594,27 L18.4613356,27 C16.7284306,27 15.1926067,25.8841586 14.6571096,24.236068 L13.5470514,20.8196601 C13.0115543,19.1715695 13.5981868,17.3661002 15.0001364,16.3475242 L17.9063065,14.236068 C19.3082562,13.2174919 21.2066389,13.2174919 22.6085885,14.236068 Z M20.2574475,17.467864 L17.3472146,19.582272 L18.4588247,23.003456 L22.0560704,23.003456 L23.1676805,19.582272 L20.2574475,17.467864 Z"></path>
            </g>
        </g>
    </g>
</svg>