<?xml version="1.0" encoding="UTF-8"?>
<svg width="40px" height="40px" viewBox="0 0 40 40" version="1.1" xmlns="http://www.w3.org/2000/svg" xmlns:xlink="http://www.w3.org/1999/xlink">
    <title>Icon_Prediction_40</title>
    <g id="控件" stroke="none" stroke-width="1" fill="none" fill-rule="evenodd">
        <g id="Icon_Prediction_40" fill="#292A33">
            <g transform="translate(-1.000000, -1.000000)" id="编组-2">
                <g transform="translate(3.000000, 4.000000)">
                    <path d="M28,12 C32.418278,12 36,15.581722 36,20 L36,26 C36,30.418278 32.418278,34 28,34 L8,34 C3.581722,34 5.41083001e-16,30.418278 0,26 L0,20 C-5.41083001e-16,15.581722 3.581722,12 8,12 L28,12 Z M28,16 L8,16 C7.59020157,16 7.19479642,16.0616249 6.82254607,16.1761132 C6.93674404,16.4276124 7,16.7064191 7,17 C7,18.1045695 6.1045695,19 5,19 C4.70641907,19 4.42761236,18.936744 4.17646573,18.823118 C4.06162492,19.1947964 4,19.5902016 4,20 L4,20 L4,26 C4,26.4097984 4.06162492,26.8052036 4.17611322,27.1774539 C4.42761236,27.063256 4.70641907,27 5,27 C6.1045695,27 7,27.8954305 7,29 C7,29.2935809 6.93674404,29.5723876 6.82311796,29.8235343 C7.19479642,29.9383751 7.59020157,30 8,30 L8,30 L28,30 C28.4097984,30 28.8052036,29.9383751 29.1774539,29.8238868 C29.063256,29.5723876 29,29.2935809 29,29 C29,27.8954305 29.8954305,27 31,27 C31.2935809,27 31.5723876,27.063256 31.8235343,27.176882 C31.9383751,26.8052036 32,26.4097984 32,26 L32,26 L32,20 C32,19.5902016 31.9383751,19.1947964 31.8238868,18.8225461 C31.5723876,18.936744 31.2935809,19 31,19 C29.8954305,19 29,18.1045695 29,17 C29,16.7064191 29.063256,16.4276124 29.176882,16.1764657 C28.8052036,16.0616249 28.4097984,16 28,16 L28,16 Z M18,18 C20.7614237,18 23,20.2385763 23,23 C23,25.7614237 20.7614237,28 18,28 C15.2385763,28 13,25.7614237 13,23 C13,20.2385763 15.2385763,18 18,18 Z M9,21 C10.1045695,21 11,21.8954305 11,23 C11,24.1045695 10.1045695,25 9,25 C7.8954305,25 7,24.1045695 7,23 C7,21.8954305 7.8954305,21 9,21 Z M27,21 C28.1045695,21 29,21.8954305 29,23 C29,24.1045695 28.1045695,25 27,25 C25.8954305,25 25,24.1045695 25,23 C25,21.8954305 25.8954305,21 27,21 Z M18,22 C17.4477153,22 17,22.4477153 17,23 C17,23.5522847 17.4477153,24 18,24 C18.5522847,24 19,23.5522847 19,23 C19,22.4477153 18.5522847,22 18,22 Z" id="Combined-Shape"></path>
                    <rect id="矩形" x="4" y="6" width="28" height="4" rx="2"></rect>
                    <rect id="矩形" x="8" y="0" width="20" height="4" rx="2"></rect>
                </g>
            </g>
        </g>
    </g>
</svg>