<?xml version="1.0" encoding="UTF-8"?>
<svg width="40px" height="40px" viewBox="0 0 40 40" version="1.1" xmlns="http://www.w3.org/2000/svg" xmlns:xlink="http://www.w3.org/1999/xlink">
    <title>Icon_Jackpot_40</title>
    <g id="控件" stroke="none" stroke-width="1" fill="none" fill-rule="evenodd">
        <g id="Icon_Jackpot_40" fill="#292A33">
            <g id="形状结合">
                <path d="M21.7031881,3.77487231 C22.5453588,4.17118791 23.2229592,4.8487883 23.6192748,5.69095897 L27.477281,13.8892222 C27.7124423,14.3889398 28.3081792,14.6034051 28.8078968,14.3682439 C28.8693746,14.3393132 28.9277438,14.3041921 28.9820997,14.2634252 L34,10.5 C35.2660506,9.55046206 37.06214,9.80704626 38.0116779,11.0730968 C38.5008202,11.7252866 38.6890101,12.5549493 38.529129,13.3543551 L35.2862142,29.5689291 C34.5383355,33.3083227 31.2550169,36 27.4415688,36 L12.5584312,36 C8.74498306,36 5.46166453,33.3083227 4.71378582,29.5689291 L1.47087101,13.3543551 C1.16050483,11.8025241 2.16691085,10.2929151 3.71874178,9.98254892 C4.51814758,9.82266776 5.34781027,10.0108577 6,10.5 L11.0179003,14.2634252 C11.4597281,14.594796 12.0865294,14.505253 12.4179003,14.0634252 C12.4586672,14.0090693 12.4937882,13.9507 12.522719,13.8892222 L16.3807252,5.69095897 C17.32137,3.69208869 19.7043179,2.83422747 21.7031881,3.77487231 Z M20,7.4 L16.1310369,15.6141064 C15.9821567,15.9301903 15.8005558,16.2297986 15.5892105,16.5080206 C13.9665625,18.6441289 10.9601864,19.1095098 8.77392929,17.6031093 L8.58320866,17.4650669 L5.97,15.48 L8.63599946,28.7858342 C8.99711393,30.5881336 10.5362249,31.9032521 12.3548714,31.9948903 L12.558048,32 L27.441952,32 C29.2800725,32 30.8719336,30.7492493 31.3190746,28.9840474 L31.3640005,28.7858342 L34.03,15.48 L31.4167913,17.4650669 C31.1385693,17.6764122 30.838961,17.8580131 30.5228771,18.0068932 C28.0940935,19.1508855 25.2107731,18.1700652 23.9711429,15.8189672 L23.8689631,15.6141064 L20,7.4 Z M21.1094004,18.9414507 C21.329105,19.0879204 21.5176309,19.2764463 21.6641006,19.4961509 L23.2603997,21.8905996 C23.7082656,22.5623984 23.7082656,23.4376016 23.2603997,24.1094004 L21.6641006,26.5038491 C21.0513957,27.4229065 19.809657,27.6712542 18.8905996,27.0585493 C18.670895,26.9120796 18.4823691,26.7235537 18.3358994,26.5038491 L16.7396003,24.1094004 C16.2917344,23.4376016 16.2917344,22.5623984 16.7396003,21.8905996 L18.3358994,19.4961509 C18.9486043,18.5770935 20.190343,18.3287458 21.1094004,18.9414507 Z"></path>
            </g>
        </g>
    </g>
</svg>