<?xml version="1.0" encoding="UTF-8"?>
<svg width="40px" height="40px" viewBox="0 0 40 40" version="1.1" xmlns="http://www.w3.org/2000/svg" xmlns:xlink="http://www.w3.org/1999/xlink">
    <title>Icon_Virtuals_40</title>
    <g id="控件" stroke="none" stroke-width="1" fill="none" fill-rule="evenodd">
        <g id="Icon_Virtuals_40" fill="#292A33">
            <g transform="translate(0.000000, 0.000000)" id="形状结合">
                <path d="M33,23 C34.0543618,23 34.9181651,23.8158778 34.9945143,24.8507377 L35,25 L35,25.9222528 C35,30.8009339 32.0297417,35.1881033 27.5,37 L21.4855627,39.4057749 C20.5319186,39.7872326 19.4680814,39.7872326 18.5144373,39.4057749 L12.5,37 C7.97025833,35.1881033 5,30.8009339 5,25.9222528 L5,25 L5.00548574,24.8507377 C5.08183488,23.8158778 5.9456382,23 7,23 C8.0543618,23 8.91816512,23.8158778 8.99451426,24.8507377 L9,25 L9,25.8837363 C9,29.0615091 10.8794272,31.9282786 13.7711203,33.2032187 L14.0288746,33.3115498 L20,35.7 L25.9711254,33.3115498 C28.9216134,32.1313546 30.8853403,29.3216588 30.9951447,26.1632883 L31,25.8837363 L31,25 L31.0054857,24.8507377 C31.0781992,23.8651568 31.8651568,23.0781992 32.8507377,23.0054857 L33,23 Z M20.3626117,25.1166089 C20.5241958,25.1963554 20.654985,25.3271446 20.7347316,25.4887288 L21.2367926,26.5060155 C21.3824546,26.8011589 21.6640202,27.0057283 21.9897303,27.0530568 L23.1123729,27.2161863 C23.5601788,27.2812563 23.8704476,27.6970244 23.8053776,28.1448304 C23.7794664,28.3231491 23.6954945,28.487953 23.5664619,28.6137288 L22.7541102,29.405576 C22.5184241,29.6353132 22.4108756,29.9663134 22.4665135,30.2907074 L22.6582838,31.4088137 C22.7347782,31.8548102 22.4352375,32.2783728 21.989241,32.3548672 C21.8116428,32.3853277 21.6289562,32.356393 21.4694631,32.2725425 L20.4653411,31.7446443 C20.1740171,31.5914862 19.8259829,31.5914862 19.5346589,31.7446443 L18.5305369,32.2725425 C18.130007,32.4831135 17.6346119,32.3291214 17.4240409,31.9285916 C17.3401905,31.7690985 17.3112558,31.5864119 17.3417162,31.4088137 L17.5334865,30.2907074 C17.5891244,29.9663134 17.4815759,29.6353132 17.2458898,29.405576 L16.4335381,28.6137288 C16.1095026,28.2978723 16.1028723,27.7791374 16.4187288,27.4551019 C16.5445045,27.3260693 16.7093085,27.2420975 16.8876271,27.2161863 L18.0102697,27.0530568 C18.3359798,27.0057283 18.6175454,26.8011589 18.7632074,26.5060155 L19.2652684,25.4887288 C19.4655333,25.0829477 19.9568307,24.916344 20.3626117,25.1166089 Z M13.217567,22.6699653 C13.3145175,22.7178133 13.392991,22.7962868 13.4408389,22.8932373 L13.7653426,23.5507535 C13.8381736,23.6983252 13.9789564,23.8006099 14.1418115,23.8242741 L14.8674237,23.9297118 C15.1361073,23.9687538 15.3222686,24.2182146 15.2832266,24.4868982 C15.2676798,24.5938894 15.2172967,24.6927718 15.1398772,24.7682373 L14.6148192,25.2800423 C14.4969762,25.3949108 14.4432019,25.5604109 14.4710209,25.722608 L14.5949703,26.4452882 C14.6408669,26.7128861 14.4611425,26.9670237 14.1935446,27.0129203 C14.0869857,27.0311966 13.9773737,27.0138358 13.8816779,26.9635255 L13.2326706,26.6223222 C13.0870086,26.5457431 12.9129914,26.5457431 12.7673294,26.6223222 L12.1183221,26.9635255 C11.8780042,27.0898681 11.5807672,26.9974728 11.4544246,26.757155 C11.4041143,26.6614591 11.3867535,26.5518471 11.4050297,26.4452882 L11.5289791,25.722608 C11.5567981,25.5604109 11.5030238,25.3949108 11.3851808,25.2800423 L10.8601228,24.7682373 C10.6657016,24.5787234 10.6617234,24.2674824 10.8512373,24.0730612 C10.9267027,23.9956416 11.0255851,23.9452585 11.1325763,23.9297118 L11.8581885,23.8242741 C12.0210436,23.8006099 12.1618264,23.6983252 12.2346574,23.5507535 L12.5591611,22.8932373 C12.67932,22.6497686 12.9740984,22.5498064 13.217567,22.6699653 Z M27.217567,22.6699653 C27.3145175,22.7178133 27.392991,22.7962868 27.4408389,22.8932373 L27.7653426,23.5507535 C27.8381736,23.6983252 27.9789564,23.8006099 28.1418115,23.8242741 L28.8674237,23.9297118 C29.1361073,23.9687538 29.3222686,24.2182146 29.2832266,24.4868982 C29.2676798,24.5938894 29.2172967,24.6927718 29.1398772,24.7682373 L28.6148192,25.2800423 C28.4969762,25.3949108 28.4432019,25.5604109 28.4710209,25.722608 L28.5949703,26.4452882 C28.6408669,26.7128861 28.4611425,26.9670237 28.1935446,27.0129203 C28.0869857,27.0311966 27.9773737,27.0138358 27.8816779,26.9635255 L27.2326706,26.6223222 C27.0870086,26.5457431 26.9129914,26.5457431 26.7673294,26.6223222 L26.1183221,26.9635255 C25.8780042,27.0898681 25.5807672,26.9974728 25.4544246,26.757155 C25.4041143,26.6614591 25.3867535,26.5518471 25.4050297,26.4452882 L25.5289791,25.722608 C25.5567981,25.5604109 25.5030238,25.3949108 25.3851808,25.2800423 L24.8601228,24.7682373 C24.6657016,24.5787234 24.6617234,24.2674824 24.8512373,24.0730612 C24.9267027,23.9956416 25.0255851,23.9452585 25.1325763,23.9297118 L25.8581885,23.8242741 C26.0210436,23.8006099 26.1618264,23.6983252 26.2346574,23.5507535 L26.5591611,22.8932373 C26.67932,22.6497686 26.9740984,22.5498064 27.217567,22.6699653 Z M7,5 C9.76142375,5 12,7.23857625 12,10 C12,10.8490167 11.788389,11.648609 11.4150323,12.3489116 C12.3904685,13.2604885 13,14.5590624 13,16 C13,18.7614237 10.7614237,21 8,21 L5,21 C2.790861,21 1,19.209139 1,17 L1,9 C1,6.790861 2.790861,5 5,5 L7,5 Z M23,5 C24.1045695,5 25,5.8954305 25,7 C25,8.0543618 24.1841222,8.91816512 23.1492623,8.99451426 L23,9 L19,9 L18.8833789,9.00672773 C18.3860402,9.06449284 18,9.48716416 18,10 C18,10.5128358 18.3860402,10.9355072 18.8833789,10.9932723 L19,11 L21,11 C23.7614237,11 26,13.2385763 26,16 C26,18.7614237 23.7614237,21 21,21 L16,21 C14.8954305,21 14,20.1045695 14,19 C14,17.8954305 14.8954305,17 16,17 L21,17 C21.5522847,17 22,16.5522847 22,16 C22,15.4871642 21.6139598,15.0644928 21.1166211,15.0067277 L21,15 L19,15 L18.7831104,14.9953805 C16.1223067,14.8818181 14,12.6887547 14,10 C14,7.3112453 16.1223067,5.11818189 18.7831104,5.00461951 L19,5 L23,5 Z M29,5 C30.1045695,5 31,5.8954305 31,7 L31,17 L37,17 C38.1045695,17 39,17.8954305 39,19 C39,20.1045695 38.1045695,21 37,21 L31,21 C28.790861,21 27,19.209139 27,17 L27,7 C27,5.8954305 27.8954305,5 29,5 Z M8,15 L5,15 L5,17 L8,17 C8.55228475,17 9,16.5522847 9,16 C9,15.4477153 8.55228475,15 8,15 Z M7,9 L5,9 L5,11 L7,11 C7.55228475,11 8,10.5522847 8,10 C8,9.44771525 7.55228475,9 7,9 Z"></path>
            </g>
        </g>
    </g>
</svg>