<?xml version="1.0" encoding="UTF-8"?>
<svg width="40px" height="40px" viewBox="0 0 40 40" version="1.1" xmlns="http://www.w3.org/2000/svg" xmlns:xlink="http://www.w3.org/1999/xlink">
    <title>Icon_Casino_40</title>
    <g id="控件" stroke="none" stroke-width="1" fill="white" fill-rule="evenodd">
        <g id="Icon_Casino_40" fill="#FFFFFF">
            <g id="形状结合">
                <g>
                    <path d="M14,5 C19.5228475,5 24,9.4771525 24,15 L24,16.999 L26,17 C31.5228475,17 36,21.4771525 36,27 C36,32.5228475 31.5228475,37 26,37 L14.0704003,36.9997574 C14.0469526,36.999919 14.0234858,37 14,37 L12,37 C7.581722,37 4,33.418278 4,29 L4,15 C4,9.4771525 8.4771525,5 14,5 Z M20,15 C20,11.6862915 17.3137085,9 14,9 C10.6862915,9 8,11.6862915 8,15 L8,15 L8,29 C8,31.209139 9.790861,33 12,33 L12,33 L26,33 C29.3137085,33 32,30.3137085 32,27 C32,23.6862915 29.3137085,21 26,21 L26,21 L20,21 L20,21 L22,21 C20.8954305,21 20,20.1045695 20,19 L20,19 Z" transform="translate(20.000000, 21.000000) rotate(135.000000) translate(-20.000000, -21.000000) "></path>
                    <path d="M20,25 C21.1045695,25 22,25.8954305 22,27 L22,33 L25,33 C26.1045695,33 27,33.8954305 27,35 C27,36.1045695 26.1045695,37 25,37 L15,37 C13.8954305,37 13,36.1045695 13,35 C13,33.8954305 13.8954305,33 15,33 L18,33 L18,33 L18,27 C18,25.8954305 18.8954305,25 20,25 Z" id="合并形状"></path>
                </g>
            </g>
        </g>
    </g>
</svg>