<?xml version="1.0" encoding="UTF-8"?>
<svg width="40px" height="40px" viewBox="0 0 40 40" version="1.1" xmlns="http://www.w3.org/2000/svg" xmlns:xlink="http://www.w3.org/1999/xlink">
    <title>Icon_EsportsFootball_40</title>
    <g id="控件" stroke="none" stroke-width="1" fill="none" fill-rule="evenodd">
        <g id="Icon_EsportsFootball_40" fill="#292A33">
            <g id="形状结合">
                <path d="M33,24 C35.7614237,24 38,26.2385763 38,29 L38,35 C38,36.6568542 36.6568542,38 35,38 L34,38 C32.3431458,38 31,36.6568542 31,35 L27,35 C27,36.6568542 25.6568542,38 24,38 L23,38 C21.3431458,38 20,36.6568542 20,35 L20,29 C20,26.2385763 22.2385763,24 25,24 L33,24 Z M20,2 C29.9411255,2 38,10.0588745 38,20 C38,20.3537333 37.9897964,20.7050834 37.9696674,21.0537721 C36.8002086,20.3830201 35.4448339,20 34,20 L34,20 L31.887,20 L31.500895,19.7190572 C30.15736,18.7429218 29.5626144,17.0441015 29.9866951,15.4536839 L30.04781,15.2469212 L30.7945969,12.9485473 C30.9277727,12.5386744 31.1228183,12.1617208 31.3673783,11.8266632 C29.8254911,9.68526638 27.6926545,7.99704649 25.2077958,7.00065132 C25.0784201,7.14512017 24.9364598,7.27901528 24.7836207,7.40308975 L24.6126456,7.53444185 L22.657532,8.95491503 C21.3165367,9.92920514 19.521338,9.97156558 18.1408467,9.08199635 L17.95525,8.95491503 L16.0001364,7.53444185 C15.7160503,7.32804121 15.4654424,7.08932953 15.2508655,6.82616367 L15.2385364,6.8305194 C12.5983032,7.78528459 10.3272429,9.51142813 8.69752672,11.7367788 C8.89372606,12.0085074 9.05537713,12.3073034 9.17827109,12.6283399 L9.24728091,12.8235186 L9.99406785,15.1218925 C10.5072526,16.7013127 9.98987033,18.4252699 8.71195786,19.4626764 L8.54098279,19.5940285 L6.5858692,21.0145016 C6.41846309,21.1361293 6.24397854,21.2432334 6.06410599,21.3358141 C6.30830648,23.9307851 7.26279556,26.3205266 8.73055479,28.3081333 C9.04529042,28.2078965 9.37585617,28.1476362 9.71539746,28.1301563 L9.92234866,28.1248376 L12.339002,28.1248376 C13.9376525,28.1248376 15.3685761,29.0744798 16.0011284,30.515574 L16,35 C16,35.9435955 16.1867022,36.8435844 16.5251805,37.6650404 C8.24741922,36.0465048 2,28.7528339 2,20 C2,10.0588745 10.0588745,2 20,2 Z M25.5,26 C24.7203039,26 24.0795513,26.5948881 24.0068666,27.35554 L24,27.5 L24,28 L23.5,28 C22.6715729,28 22,28.6715729 22,29.5 C22,30.2796961 22.5948881,30.9204487 23.35554,30.9931334 L23.5,31 L24,31 L24,31.5 C24,32.3284271 24.6715729,33 25.5,33 C26.2796961,33 26.9204487,32.4051119 26.9931334,31.64446 L27,31.5 L27,31 L27.5,31 C28.3284271,31 29,30.3284271 29,29.5 C29,28.7203039 28.4051119,28.0795513 27.64446,28.0068666 L27.5,28 L27,28 L27,27.5 C27,26.6715729 26.3284271,26 25.5,26 Z M35.5,30 C34.6715729,30 34,30.6715729 34,31.5 C34,32.3284271 34.6715729,33 35.5,33 C36.3284271,33 37,32.3284271 37,31.5 C37,30.6715729 36.3284271,30 35.5,30 Z M32.5,26 C31.6715729,26 31,26.6715729 31,27.5 C31,28.3284271 31.6715729,29 32.5,29 C33.3284271,29 34,28.3284271 34,27.5 C34,26.6715729 33.3284271,26 32.5,26 Z M22.6085885,14.236068 L25.5147587,16.3475242 C26.6869443,17.1991669 27.2891567,18.6009124 27.1420606,20.0008242 L24,20 C23.6655073,20 23.3358094,20.0205286 23.0120973,20.0603946 L23.1676805,19.582272 L20.2574475,17.467864 L17.3472146,19.582272 L18.2686902,22.4185882 C17.2446791,23.469927 16.5074901,24.8020023 16.183511,26.2884265 C15.4808461,25.8013906 14.9346368,25.0902089 14.6571096,24.236068 L13.5470514,20.8196601 C13.0115543,19.1715695 13.5981868,17.3661002 15.0001364,16.3475242 L17.9063065,14.236068 C19.3082562,13.2174919 21.2066389,13.2174919 22.6085885,14.236068 Z"></path>
            </g>
        </g>
    </g>
</svg>